<?xml version="1.0" encoding="UTF-8"?>
<svg width="24px" height="24px" viewBox="0 0 24 24" version="1.1" xmlns="http://www.w3.org/2000/svg" xmlns:xlink="http://www.w3.org/1999/xlink">
    <title>9dd0a356-d9c0-4c97-8074-4d07001d4c5f@1.00x</title>
    <g id="icons" stroke="none" stroke-width="1" fill="none" fill-rule="evenodd">
        <g id="icon/send" fill="#212B35">
            <path d="M10.9486833,20.3162278 C10.8125693,20.7245699 10.4304304,21 10,21 L4,21 C3.25661798,21 2.77312226,20.2176875 3.10557281,19.5527864 L11.1055728,3.5527864 C11.4740971,2.81573787 12.5259029,2.81573787 12.8944272,3.5527864 L20.8944272,19.5527864 C21.2268777,20.2176875 20.743382,21 20,21 L14,21 C13.5695696,21 13.1874307,20.7245699 13.0513167,20.3162278 L12,17.1622777 L10.9486833,20.3162278 Z M5.61803399,19 L9.27924078,19 L11.0513167,13.6837722 C11.3552155,12.7720759 12.6447845,12.7720759 12.9486833,13.6837722 L14.7207592,19 L18.381966,19 L12,6.23606798 L5.61803399,19 Z" id="icon" transform="translate(12.000000, 12.000000) rotate(-270.000000) translate(-12.000000, -12.000000) "></path>
        </g>
    </g>
</svg>